<?xml version="1.0" standalone="no"?><!DOCTYPE svg PUBLIC "-//W3C//DTD SVG 1.1//EN" "http://www.w3.org/Graphics/SVG/1.1/DTD/svg11.dtd"><svg t="1528943187754" class="icon" style="" viewBox="0 0 1024 1024" version="1.1" xmlns="http://www.w3.org/2000/svg" p-id="4395" xmlns:xlink="http://www.w3.org/1999/xlink" width="32" height="32"><defs><style type="text/css"></style></defs><path d="M496.245131 211.67236C321.307876 211.67236 179.284907 353.54802 179.176472 528.408551c-0.108436 174.912703 142.295081 317.060476 317.503425 317.006258C671.071904 845.359568 813.205355 703.321255 813.422226 528.896511 813.694338 353.92959 671.452452 211.726577 496.245131 211.67236zM701.214945 565.57433c-28.405003-0.107413-95.370102-0.216871-167.874621-0.216871-0.054218 72.486106-0.109459 139.430745-0.217894 167.85007-0.109459 20.376679-16.728743 37.004148-37.095193 37.11156-20.367473 0.056264-36.823081-16.354334-36.714645-36.732036 0.107413-28.52776 0.217894-95.63403 0.217894-168.229594-72.612955 0-139.634318 0.108436-168.146733 0.216871-20.36645 0.109459-36.824104-16.354334-36.714645-36.72999 0.107413-20.377702 16.67248-37.005171 37.093147-37.113606 28.405003-0.108436 95.315884-0.216871 167.767209-0.216871 0-72.541347-0.109459-139.540204-0.217894-168.012723-0.107413-20.376679 16.347173-36.841495 36.714645-36.733059 20.36645 0.108436 36.984711 16.735904 37.095193 37.112583 0.107413 28.365107 0.163676 95.254505 0.217894 167.633199 72.341866 0 139.145335 0.108436 167.549315 0.216871 20.36645 0.108436 36.984711 16.735904 37.038929 37.113606C738.039049 549.218973 721.634589 565.683788 701.214945 565.57433z" p-id="4396" fill="#f4ea2a"></path></svg>