<?xml version="1.0" standalone="no"?><!DOCTYPE svg PUBLIC "-//W3C//DTD SVG 1.1//EN" "http://www.w3.org/Graphics/SVG/1.1/DTD/svg11.dtd"><svg t="1528000440897" class="icon" style="" viewBox="0 0 1024 1024" version="1.1" xmlns="http://www.w3.org/2000/svg" p-id="1919" xmlns:xlink="http://www.w3.org/1999/xlink" width="32" height="32"><defs><style type="text/css"></style></defs><path d="M525.7216 141.4144h-26.9312c-2.3552 0-4.3008-1.9456-4.3008-4.3008v-124.928c0-2.3552 1.9456-4.3008 4.3008-4.3008h26.9312c2.3552 0 4.3008 1.9456 4.3008 4.3008v124.928c0 2.3552-1.9456 4.3008-4.3008 4.3008zM359.936 178.688l-23.3472 13.5168c-2.048 1.1264-4.608 0.512-5.8368-1.536L268.288 82.432c-1.1264-2.048-0.512-4.608 1.536-5.8368l23.3472-13.5168c2.048-1.1264 4.608-0.512 5.8368 1.536l62.464 108.2368c1.1264 2.048 0.512 4.608-1.536 5.8368zM234.9056 293.7856l-13.5168 23.3472c-1.1264 2.048-3.7888 2.7648-5.8368 1.536l-108.2368-62.464c-2.048-1.1264-2.7648-3.7888-1.536-5.8368l13.5168-23.3472c1.1264-2.048 3.7888-2.7648 5.8368-1.536l108.2368 62.464c1.9456 1.2288 2.6624 3.7888 1.536 5.8368zM184.2176 455.9872v26.9312c0 2.3552-1.9456 4.3008-4.3008 4.3008h-124.928c-2.3552 0-4.3008-1.9456-4.3008-4.3008v-26.9312c0-2.3552 1.9456-4.3008 4.3008-4.3008h124.928c2.3552 0.1024 4.3008 1.9456 4.3008 4.3008zM221.3888 621.8752l13.5168 23.3472c1.1264 2.048 0.512 4.608-1.536 5.8368l-108.2368 62.464c-2.048 1.1264-4.608 0.512-5.8368-1.536l-13.5168-23.3472c-1.1264-2.048-0.512-4.608 1.536-5.8368l108.2368-62.464c2.048-1.2288 4.7104-0.512 5.8368 1.536zM793.6 648.704l13.5168-23.3472c1.1264-2.048 3.7888-2.7648 5.8368-1.536l108.2368 62.464c2.048 1.1264 2.7648 3.7888 1.536 5.8368l-13.5168 23.3472c-1.1264 2.048-3.7888 2.7648-5.8368 1.536l-108.2368-62.464c-2.048-1.2288-2.7648-3.8912-1.536-5.8368zM840.2944 483.0208v-26.9312c0-2.3552 1.9456-4.3008 4.3008-4.3008h124.928c2.3552 0 4.3008 1.9456 4.3008 4.3008v26.9312c0 2.3552-1.9456 4.3008-4.3008 4.3008h-124.928c-2.3552-0.1024-4.3008-1.9456-4.3008-4.3008zM803.1232 317.1328l-13.5168-23.3472c-1.1264-2.048-0.512-4.608 1.536-5.8368l108.2368-62.464c2.048-1.1264 4.608-0.512 5.8368 1.536l13.5168 23.3472c1.1264 2.048 0.512 4.608-1.536 5.8368l-108.2368 62.464c-2.048 1.2288-4.7104 0.512-5.8368-1.536zM687.9232 192.1024L664.576 178.688c-2.048-1.1264-2.7648-3.7888-1.536-5.8368l62.464-108.2368c1.1264-2.048 3.7888-2.7648 5.8368-1.536L754.688 76.4928c2.048 1.1264 2.7648 3.7888 1.536 5.8368l-62.464 108.2368c-1.1264 2.048-3.7888 2.7648-5.8368 1.536z" fill="#1afa29" p-id="1920"></path><path d="M537.4976 1019.5968h-50.4832c-4.4032 0-7.9872-3.584-7.9872-7.9872V931.84c0-4.4032 3.584-7.9872 7.9872-7.9872h50.4832c4.4032 0 7.9872 3.584 7.9872 7.9872v79.6672c0 4.5056-3.584 8.0896-7.9872 8.0896z" fill="#1afa29" p-id="1921"></path><path d="M479.0272 889.856h66.4576v95.744h-66.4576z" fill="#1afa29" p-id="1922"></path><path d="M402.944 754.688v153.088c0 32.8704 30.6176 59.6992 68.096 59.6992h82.6368c37.4784 0 68.096-26.8288 68.096-59.6992v-146.432c-31.1296 11.0592-65.1264 17.2032-100.864 17.2032-42.3936 0-82.432-8.6016-117.9648-23.8592z" fill="#1afa29" p-id="1923"></path><path d="M413.184 939.008c11.9808 16.9984 33.4848 28.4672 57.856 28.4672h82.6368c37.4784 0 68.096-26.8288 68.096-59.6992v-95.4368h-35.7376C563.4048 882.7904 495.104 934.912 413.184 939.008z" fill="#1afa29" p-id="1924"></path><path d="M402.944 777.1136v43.8272H621.568V704.7168H402.944V719.872c31.0272 13.824 65.1264 22.016 101.0688 23.1424-31.8464 15.1552-65.7408 26.624-101.0688 34.0992z" fill="#1afa29" p-id="1925"></path><path d="M504.0128 742.912c-35.9424-1.1264-70.0416-9.216-101.0688-23.1424v57.2416c35.328-7.3728 69.2224-18.8416 101.0688-34.0992z" fill="#1afa29" p-id="1926"></path><path d="M504.0128 742.912c-35.9424-1.1264-70.0416-9.216-101.0688-23.1424v57.2416c35.328-7.3728 69.2224-18.8416 101.0688-34.0992z" fill="#1afa29" p-id="1927"></path><path d="M758.3744 367.616c-41.3696-94.9248-135.9872-161.28-246.0672-161.28-148.2752 0-268.3904 120.2176-268.3904 268.3904 0 145.5104 115.712 263.7824 260.1984 268.1856C646.5536 674.7136 747.52 533.4016 758.3744 367.616z" fill="#1afa29" p-id="1928"></path><path d="M758.3744 367.616C747.52 533.504 646.5536 674.816 504.0128 743.0144c2.7648 0.1024 5.5296 0.2048 8.2944 0.2048 148.2752 0 268.3904-120.2176 268.3904-268.3904 0-38.1952-7.9872-74.4448-22.3232-107.2128z" fill="#1afa29" p-id="1929"></path><path d="M758.3744 367.616c-41.3696-94.9248-135.9872-161.28-246.0672-161.28-148.2752 0-268.3904 120.2176-268.3904 268.3904 0 145.5104 115.712 263.7824 260.1984 268.1856C646.5536 674.7136 747.52 533.4016 758.3744 367.616z" fill="#1afa29" p-id="1930"></path><path d="M320.505006 521.917117a50.3808 88.064 17.998 1 0 54.420698-167.509582 50.3808 88.064 17.998 1 0-54.420698 167.509582Z" fill="#1afa29" p-id="1931"></path></svg>