<?xml version="1.0" encoding="UTF-8"?>
<svg width="26px" height="26px" viewBox="0 0 26 26" version="1.1" xmlns="http://www.w3.org/2000/svg" xmlns:xlink="http://www.w3.org/1999/xlink">
    <!-- Generator: Sketch 48.1 (47250) - http://www.bohemiancoding.com/sketch -->
    <title>del</title>
    <desc>Created with Sketch.</desc>
    <defs></defs>
    <g id="Page-1" stroke="none" stroke-width="1" fill="none" fill-rule="evenodd">
        <path d="M13,11.6665107 L8.11248069,6.77945096 C7.7386774,6.40568281 7.14473231,6.40881706 6.77646478,6.77704996 C6.40562976,7.14785012 6.40927232,7.74338132 6.778866,8.11294025 L11.6663853,13 L6.778866,17.8870597 C6.40927232,18.2566187 6.40562976,18.8521499 6.77646478,19.22295 C7.14473231,19.5911829 7.7386774,19.5943172 8.11248069,19.220549 L13,14.3334893 L17.8875193,19.220549 C18.2613226,19.5943172 18.8552677,19.5911829 19.2235352,19.22295 C19.5943702,18.8521499 19.5907277,18.2566187 19.221134,17.8870597 L14.3336147,13 L19.221134,8.11294025 C19.5907277,7.74338132 19.5943702,7.14785012 19.2235352,6.77704996 C18.8552677,6.40881706 18.2613226,6.40568281 17.8875193,6.77945096 L13,11.6665107 Z M13,26 C5.82029825,26 0,20.1797017 0,13 C0,5.82029825 5.82029825,0 13,0 C20.1797017,0 26,5.82029825 26,13 C26,20.1797017 20.1797017,26 13,26 Z" id="del" fill="#CCCCCC"></path>
    </g>
</svg>