<?xml version="1.0" standalone="no"?><!DOCTYPE svg PUBLIC "-//W3C//DTD SVG 1.1//EN" "http://www.w3.org/Graphics/SVG/1.1/DTD/svg11.dtd"><svg t="1528266862843" class="icon" style="" viewBox="0 0 1387 1024" version="1.1" xmlns="http://www.w3.org/2000/svg" p-id="2559" xmlns:xlink="http://www.w3.org/1999/xlink" width="43.34375" height="32"><defs><style type="text/css"></style></defs><path d="M514.176807 0.880806C232.444686 0.880806 3.183443 230.14205 3.183443 511.874171c0 281.732121 229.261244 510.993364 510.993364 510.993364 281.732121 0 510.993364-229.261244 510.993365-510.993364 0-281.732121-229.261244-510.993364-510.993365-510.993365z m0 981.09216c-259.208651 0-470.098796-210.890145-470.098795-470.098795C44.078012 252.66552 254.968157 41.775375 514.176807 41.775375c259.208651 0 470.098796 210.890145 470.098796 470.098796 0 259.208651-210.890145 470.098796-470.098796 470.098795z m0 0" p-id="2560" fill="#8a8a8a"></path><path d="M694.490398 712.69796c-5.536495 0-10.695503-2.139101-14.596215-6.039813l-166.094864-166.094864-165.591546 166.094864c-3.900713 3.900713-9.05972 6.039813-14.596215 6.039813-5.536495 0-10.695503-2.139101-14.470386-6.039813-8.053084-8.053084-7.927255-21.013517 0-29.066601l166.094864-165.969034L319.267002 346.030966c-3.900713-3.900713-6.039813-9.05972-6.039814-14.596215 0-5.536495 2.139101-10.695503 6.039814-14.470386 3.900713-3.900713 9.05972-6.039813 14.470385-6.039814 5.536495 0 10.695503 2.139101 14.596216 6.039814l166.094863 166.094863 165.591546-166.094863c3.900713-3.900713 9.05972-6.039813 14.470386-6.039814 5.536495 0 10.695503 2.139101 14.470386 6.039814 3.900713 3.900713 6.039813 9.05972 6.039813 14.470386 0 5.536495-2.139101 10.695503-6.039813 14.470385l-166.094864 165.969035 166.094864 165.591545c3.900713 3.900713 6.039813 9.05972 6.039813 14.596216 0 5.536495-2.139101 10.695503-6.039813 14.470386-3.774883 4.026542-8.93389 6.165643-14.470386 6.165642z m0 0" p-id="2561" fill="#8a8a8a"></path></svg>