<?xml version="1.0" standalone="no"?><!DOCTYPE svg PUBLIC "-//W3C//DTD SVG 1.1//EN" "http://www.w3.org/Graphics/SVG/1.1/DTD/svg11.dtd"><svg t="1528943109365" class="icon" style="" viewBox="0 0 1024 1024" version="1.1" xmlns="http://www.w3.org/2000/svg" p-id="1549" xmlns:xlink="http://www.w3.org/1999/xlink" width="32" height="32"><defs><style type="text/css"></style></defs><path d="M511.575328 959.427332c-247.185752 0-447.569572-200.382796-447.569572-447.568549 0-247.185752 200.38382-447.568549 447.569572-447.568549s447.569572 200.382796 447.569572 447.568549C959.1449 759.044536 758.76108 959.427332 511.575328 959.427332zM511.575328 120.235408c-216.288045 0-391.621329 175.337377-391.621329 391.624399 0 216.285998 175.332261 391.621329 391.621329 391.621329s391.621329-175.335331 391.621329-391.621329C903.196657 295.572786 727.864396 120.235408 511.575328 120.235408zM581.508074 302.060547l0 321.69063c0 0.034792-0.010233 0.067538-0.010233 0.102331 3.051499 55.954383-48.027853 112.579031-123.117039 132.093481-83.324754 21.655206-164.625408-10.582009-181.593871-72.005964-16.96744-61.422931 36.82265-128.771829 120.147404-150.427034 47.345308-12.304234 94.02035-7.192819 128.628566 10.769274L525.5629 246.11435c0-7.724938 6.263657-13.985526 13.985526-13.985526l27.974122 0c3.400446 0 6.475482 1.261737 8.899694 3.278673 15.372106 0.240477 35.255968 6.940063 61.033052 24.694425 85.668125 59.004859 111.892393 41.958624 111.892393 41.958624l0 55.946196C749.34564 358.006743 682.909531 373.742123 581.508074 302.060547zM418.052305 580.721151c-46.651506 12.916171-88.300069 55.165414-79.134315 90.51655 9.166777 35.351136 67.053162 54.623062 112.331391 37.502126 38.781258-14.662955 75.608002-49.634444 74.314543-84.98251 0-0.002047-0.001023-0.004093-0.001023-0.00614l0-0.00921C524.21009 587.251891 464.698694 567.806004 418.052305 580.721151z" p-id="1550" fill="#f4ea2a"></path></svg>