<?xml version="1.0" standalone="no"?><!DOCTYPE svg PUBLIC "-//W3C//DTD SVG 1.1//EN" "http://www.w3.org/Graphics/SVG/1.1/DTD/svg11.dtd"><svg t="1528004924106" class="icon" style="" viewBox="0 0 1024 1024" version="1.1" xmlns="http://www.w3.org/2000/svg" p-id="2942" xmlns:xlink="http://www.w3.org/1999/xlink" width="32" height="32"><defs><style type="text/css"></style></defs><path d="M511.996157 1.279712C229.933078 1.279712 1.275869 229.936921 1.275869 512c0 282.063079 228.657209 510.720288 510.720288 510.720288 282.070765 0 510.720288-228.657209 510.720288-510.720288C1022.720288 229.933078 794.066922 1.279712 511.996157 1.279712z m249.459251 520.727404c-25.905517 15.156706-329.381671 192.31032-344.565278 201.079997-18.953569 10.960174-38.122345-2.982151-38.122345-21.716671V298.39958c0-20.640636 21.186339-30.663124 37.34222-21.582167 22.070224 12.370547 326.691586 190.423418 345.345403 201.533469 16.732328 9.968686 17.005179 33.70292 0 43.656234z" p-id="2943" fill="#2c2c2c"></path></svg>