<?xml version="1.0" standalone="no"?><!DOCTYPE svg PUBLIC "-//W3C//DTD SVG 1.1//EN" "http://www.w3.org/Graphics/SVG/1.1/DTD/svg11.dtd"><svg t="1528087254477" class="icon" style="" viewBox="0 0 1024 1024" version="1.1" xmlns="http://www.w3.org/2000/svg" p-id="2100" xmlns:xlink="http://www.w3.org/1999/xlink" width="32" height="32"><defs><style type="text/css"></style></defs><path d="M122.92 215.637h46.056v13.955H122.92v-13.955z" p-id="2101"></path><path d="M139.4 196.753h13.046v53.224H139.4v-53.224zM744.135 18.976h46.014v13.92h-46.229l0.215-13.92z" p-id="2102"></path><path d="M760.459 0.007h13.04V53.31h-13.04V0.007zM928.45 327.221h46.021v13.92h-46.02v-13.92z" p-id="2103"></path><path d="M944.937 308.13h13.047v53.26h-13.047v-53.26z m-716.57 529.89V288.244c0-43.532 32.187-78.982 71.785-78.982h500.14c39.556 0 71.787 35.414 71.787 78.982v549.774h13.046V288.245c0-51.236-38.067-92.901-84.832-92.901H300.109c-46.758 0-84.825 41.665-84.825 92.901v549.774h13.082z" p-id="2104"></path><path d="M221.829 359.988h659.813v13.92H221.829v-13.92z m79.775-38.933a34.305 34.305 0 0 1-27.317-57.652 34.29 34.29 0 1 1 59.34 23.44 33.153 33.153 0 0 1-32.023 34.212z m0-54.469a20.3 20.3 0 1 0 18.884 20.293 19.67 19.67 0 0 0-18.884-20.293z m79.811 55.871a34.248 34.248 0 1 1 32.024-34.212 33.14 33.14 0 0 1-32.024 34.212z m0-54.462a20.285 20.285 0 0 0-16.13 34.126 20.285 20.285 0 0 0 35.107-13.876 19.67 19.67 0 0 0-18.977-20.25z m77.58 55.878a34.298 34.298 0 1 1 32.016-34.219 33.132 33.132 0 0 1-32.016 34.22z m0-54.469a20.285 20.285 0 0 0-16.258 34.084 20.328 20.328 0 0 0 22.288 5.05 20.307 20.307 0 0 0 12.846-18.884 19.663 19.663 0 0 0-18.883-20.421v0.171h0.007z m97.379 16.566h233.225v13.92H556.331l0.043-13.92zM412.1 610.788c0 19.913 13.755 36.022 30.7 36.022 16.938 0 30.693-16.152 30.693-36.022 0-19.892-13.755-36.043-30.693-36.043-16.938 0-30.7 16.115-30.7 36.043z m208.684 6.38c0 19.914 13.748 36.029 30.686 36.029 16.945 0 30.7-16.151 30.7-36.029 0-19.885-13.755-36.043-30.7-36.043-16.938 0-30.686 16.273-30.686 36.043z m-181.339 176.56l-9.241-9.842c71.32-76.149 186.639-76.878 257.059-1.652l-9.242 9.842c-65.284-69.79-172.34-69.039-238.576 1.653z m572.757 96.507c-91.585-26.451-197.082 0.336-279.626 73.653h20.958c78.237-63.124 174.872-84.819 258.625-59.176v-14.47h0.043v-0.007zM304.959 954.08h17.596a288.882 288.882 0 0 0-80.563-68.302C170.88 844.972 85.467 833.54 1.55 853.913l2.897 13.59c80.855-19.642 163.034-8.82 231.38 30.528a277.487 277.487 0 0 1 69.132 56.05z m174.286 24.048c-31.802-51.923-103.545-62.123-159.423-23.097l-7.124-11.68c62.13-43.368 141.74-31.187 177.49 27.173l-10.943 7.604z" p-id="2105"></path><path d="M482.228 978.715l-8.484-10.471c88.13-81.843 209.414-87.601 270.392-12.847l-9.864 9.141c-56.25-68.996-169.279-62.615-252.002 14.17h-0.042v0.007z m-206.639 17.11h7.833a129.066 129.066 0 0 0-35.872-30.4 144.938 144.938 0 0 0-107.07-14.17l1.287 6.052a139.602 139.602 0 0 1 103.05 13.59 123.572 123.572 0 0 1 30.772 24.856v0.072z" p-id="2106"></path><path d="M354.95 1009.694a45.184 45.184 0 0 0-32.51-21.122 58.682 58.682 0 0 0-42.044 10.68l-7.124-11.674a70.935 70.935 0 0 1 50.985-12.804 58.06 58.06 0 0 1 41.794 27.295l-10.936 7.618h-0.165v0.007z" p-id="2107"></path><path d="M275.174 989.602h8.04a129.03 129.03 0 0 0-35.871-30.4 145.045 145.045 0 0 0-107.071-14.155l1.287 6.03A139.63 139.63 0 0 1 244.61 964.66a124.838 124.838 0 0 1 30.564 24.942z m595.546-58.925c-33.154-1.445-71.543 15.364-101.943 48.253l9.285 9.77c27.567-29.827 62.13-45.32 91.363-44.247l1.295-13.776z" p-id="2108"></path></svg>