<?xml version="1.0" standalone="no"?><!DOCTYPE svg PUBLIC "-//W3C//DTD SVG 1.1//EN" "http://www.w3.org/Graphics/SVG/1.1/DTD/svg11.dtd"><svg t="1528006477686" class="icon" style="" viewBox="0 0 1024 1024" version="1.1" xmlns="http://www.w3.org/2000/svg" p-id="3739" xmlns:xlink="http://www.w3.org/1999/xlink" width="32" height="32"><defs><style type="text/css"></style></defs><path d="M937.584442 192.481043 764.469352 192.481043 764.469352 80.288331c0-35.195427-28.530172-63.72357-63.724584-63.72357l-369.418614 0c-35.194412 0-63.72357 28.529157-63.72357 63.72357L267.602584 192.481043 86.577829 192.481043c-17.53027 0-31.714727 14.185472-31.714727 31.714727s14.185472 31.714727 31.714727 31.714727L128.854328 255.910498l0 604.751202c0 87.433298 71.141354 158.574651 158.574651 158.574651l449.305326 0c87.433298 0 158.574651-71.141354 158.574651-158.574651l0-604.751202 42.276499 0c17.53027 0 31.714727-14.185472 31.714727-31.714727S955.114711 192.481043 937.584442 192.481043zM331.326154 79.994216l369.418614 0 0.294115 0.294115 0 112.047683L331.138529 192.336014 331.326154 79.994216zM831.878487 860.661699c0 52.466064-42.679133 95.145197-95.145197 95.145197L287.428979 955.806896c-52.466064 0-95.145197-42.679133-95.145197-95.145197l0-604.751202 639.594704 0L831.878487 860.661699z" p-id="3740"></path><path d="M404.64903 754.955745c-17.53027 0-31.714727-14.185472-31.714727-31.714727L372.934302 390.048247c0-17.53027 14.185472-31.714727 31.714727-31.714727 17.53027 0 31.714727 14.185472 31.714727 31.714727l0 333.19277C436.363757 740.771287 422.178285 754.955745 404.64903 754.955745z" p-id="3741"></path><path d="M616.060939 754.955745c-17.53027 0-31.714727-14.185472-31.714727-31.714727L584.346211 390.048247c0-17.53027 14.185472-31.714727 31.714727-31.714727 17.53027 0 31.714727 14.185472 31.714727 31.714727l0 333.19277C647.775666 740.771287 633.591208 754.955745 616.060939 754.955745z" p-id="3742"></path></svg>